# xmcd
#
# Track frame offsets:
#	150
#	15568
#	34464
#	64376
#	77200
#	84094
#	105275
#	125305
#	139959
#	149232
#	164689
#	182349
#	203533
#
# Disc length: 2999 seconds
#
# Revision: 1
# Processed by: cddbd v1.5PL3 Copyright (c) Steve Scherf et al.
# Submitted via: audiograbber 1.82.02
#
DISCID=b10bb50d
DTITLE=Freddy James "The Doctor" - Tubed
DYEAR=1997
DGENRE=Blues
TTITLE0=Diddy Wah Diddy No. 2
TTITLE1=Back Door Trouble
TTITLE2=Mississippi Water
TTITLE3=Jelly Roll at the Fishin ' Hole
TTITLE4=Vipers Stomp
TTITLE5=Shake You Down
TTITLE6=Woke Up This Mornin'
TTITLE7=Freight Train Blues
TTITLE8=The Farmer's Lament
TTITLE9=Drinkin' Stuff
TTITLE10=Short Time Woman
TTITLE11=15 Minutes Later
TTITLE12=Death Wish Blues
EXTD=
EXTT0=
EXTT1=
EXTT2=
EXTT3=
EXTT4=
EXTT5=
EXTT6=
EXTT7=
EXTT8=
EXTT9=
EXTT10=
EXTT11=
EXTT12=
PLAYORDER=
